<svg width="16px" height="16px" viewBox="2 2 16 16" version="1.1" xmlns="http://www.w3.org/2000/svg" xmlns:xlink="http://www.w3.org/1999/xlink">
  <path d="M10,2 C5.5703125,2 2,5.5703125 2,10 C2,14.4296875 5.5703125,18 10,18 C14.4296875,18 18,14.4296875 18,10 C18,5.5703125 14.4296875,2 10,2 L10,2 Z M11,14.9296875 L11,16 L9,16 L9,14.9453125 C7.296875,14.71875 6.3359375,14 6.3359375,14 L7.3359375,12.3359375 C8,12.6640625 9,13 10,13 C11,13 12,12.6640625 12,12 C12,10 6,12.3359375 6,8 C6,6.109375 7.5390625,5.3125 9,5.0703125 L9,4 L11,4 L11,5.0546875 C12.703125,5.28125 13.6640625,6 13.6640625,6 L12.6640625,7.6640625 C12,7.3359375 11,7 10,7 C9,7 8,7.3359375 8,8 C8,10 14,7.6640625 14,12 C14,13.890625 12.4609375,14.6875 11,14.9296875 L11,14.9296875 Z" stroke="none" fill="#EC2979" fill-rule="evenodd"></path>
</svg>