<svg width="16px" height="15px" viewBox="2 2 16 15" version="1.1" xmlns="http://www.w3.org/2000/svg" xmlns:xlink="http://www.w3.org/1999/xlink">
  <path d="M4.6640625,13.6640625 C4.6640625,13.484375 4.515625,13.3359375 4.3359375,13.3359375 L2.3359375,13.3359375 C2.1484375,13.3359375 2,13.484375 2,13.6640625 L2,15.6640625 C2,15.8515625 2.1484375,16 2.3359375,16 L4.3359375,16 C4.515625,16 4.6640625,15.8515625 4.6640625,15.6640625 L4.6640625,13.6640625 Z M4.6640625,8 C4.6640625,7.8125 4.515625,7.6640625 4.3359375,7.6640625 L2.3359375,7.6640625 C2.1484375,7.6640625 2,7.8125 2,8 L2,10 C2,10.1875 2.1484375,10.3359375 2.3359375,10.3359375 L4.3359375,10.3359375 C4.515625,10.3359375 4.6640625,10.1875 4.6640625,10 L4.6640625,8 Z M4.6640625,2.3359375 C4.6640625,2.1484375 4.515625,2 4.3359375,2 L2.3359375,2 C2.1484375,2 2,2.1484375 2,2.3359375 L2,4.3359375 C2,4.515625 2.1484375,4.6640625 2.3359375,4.6640625 L4.3359375,4.6640625 C4.515625,4.6640625 4.6640625,4.515625 4.6640625,4.3359375 L4.6640625,2.3359375 Z M18,13.6640625 C18,13.484375 17.8515625,13.3359375 17.6640625,13.3359375 L6.3359375,13.3359375 C6.1484375,13.3359375 6,13.484375 6,13.6640625 L6,15.6640625 C6,15.8515625 6.1484375,16 6.3359375,16 L17.6640625,16 C17.8515625,16 18,15.8515625 18,15.6640625 L18,13.6640625 Z M18,8 C18,7.8125 17.8515625,7.6640625 17.6640625,7.6640625 L6.3359375,7.6640625 C6.1484375,7.6640625 6,7.8125 6,8 L6,10 C6,10.1875 6.1484375,10.3359375 6.3359375,10.3359375 L17.6640625,10.3359375 C17.8515625,10.3359375 18,10.1875 18,10 L18,8 Z M18,2.3359375 C18,2.1484375 17.8515625,2 17.6640625,2 L6.3359375,2 C6.1484375,2 6,2.1484375 6,2.3359375 L6,4.3359375 C6,4.515625 6.1484375,4.6640625 6.3359375,4.6640625 L17.6640625,4.6640625 C17.8515625,4.6640625 18,4.515625 18,4.3359375 L18,2.3359375 Z" stroke="none" fill="#EC2979" fill-rule="evenodd"></path>
</svg>