<?xml version="1.0" encoding="UTF-8"?>
<svg width="113px" height="30px" viewBox="0 0 113 30" version="1.1" xmlns="http://www.w3.org/2000/svg" xmlns:xlink="http://www.w3.org/1999/xlink">
    <!-- Generator: Sketch 40.3 (33839) - http://www.bohemiancoding.com/sketch -->
    <title>Logo</title>
    <desc>Created with Sketch.</desc>
    <defs></defs>
    <g id="App" stroke="none" stroke-width="1" fill="none" fill-rule="evenodd">
        <g id="Home-(Sidebar-Open)-3" transform="translate(-32.000000, -18.000000)">
            <g id="Sidebar">
                <g id="Sidebar-Header" transform="translate(32.000000, 18.000000)">
                    <g id="Logo">
                        <polyline id="Fill-1" fill="#ffffff" points="111.371605 0.216 67.129581 15.32 111.371605 6.617 111.371605 0.216"></polyline>
                        <path d="M0.27544664,27.87 L1.75952569,27.87 L1.75952569,21.046 L0.181343874,21.046 L0.181343874,19.608 L1.75952569,19.608 L1.75952569,19.129 C1.75952569,16.023 4.0523004,15.639 5.17957312,15.639 C5.68635573,15.639 6.04512253,15.696 6.04512253,15.696 L6.04512253,17.23 C6.04512253,17.229 5.80006324,17.172 5.36777866,17.172 C4.76689328,17.172 3.5827668,17.345 3.5827668,19.089 L3.5827668,19.608 L5.87456126,19.608 L5.87456126,21.046 L3.5827668,21.046 L3.5827668,27.87 L5.33052964,27.87 L5.33052964,29.308 L0.27544664,29.308 L0.27544664,27.87" id="Fill-2" fill="#FFFFFF"></path>
                        <path d="M8.66333597,21.046 L7.06554941,21.046 L7.06554941,19.608 L10.4865771,19.608 L10.4865771,25.435 C10.4865771,26.777 10.7492806,27.851 12.2715889,27.851 C14.1693281,27.851 15.3534545,25.992 15.3534545,24.074 L15.3534545,21.046 L13.7566482,21.046 L13.7566482,19.608 L17.1757154,19.608 L17.1757154,27.467 C17.1757154,27.736 17.3266719,27.889 17.5893755,27.889 L18.5852964,27.889 L18.5852964,29.308 L16.6130593,29.308 C15.7847589,29.308 15.4093281,28.925 15.4093281,28.235 L15.4093281,27.813 C15.4093281,27.487 15.4465771,27.238 15.4465771,27.238 L15.4093281,27.238 C15.2221028,27.755 14.1507036,29.538 11.7824506,29.538 C9.73473518,29.538 8.66333597,28.388 8.66333597,25.819 L8.66333597,21.046" id="Fill-3" fill="#FFFFFF"></path>
                        <path d="M20.0899605,27.87 L21.5730593,27.87 L21.5730593,21.468 C21.5730593,21.179 21.423083,21.046 21.1603794,21.046 L19.9948775,21.046 L19.9948775,19.608 L22.1386561,19.608 C22.964996,19.608 23.3394466,19.972 23.3394466,20.68 L23.3394466,21.179 C23.3394466,21.485 23.2835731,21.736 23.2835731,21.736 L23.3218024,21.736 C23.5090277,21.217 24.6176759,19.377 27.0241581,19.377 C29.2032253,19.377 30.181502,20.624 30.181502,23.096 L30.181502,27.87 L31.6842055,27.87 L31.6842055,29.308 L28.3582609,29.308 L28.3582609,23.518 C28.3582609,22.158 28.0935968,21.084 26.573249,21.084 C24.6568854,21.084 23.3963004,22.867 23.3963004,24.803 L23.3963004,27.87 L24.9009644,27.87 L24.9009644,29.308 L20.0899605,29.308 L20.0899605,27.87" id="Fill-4" fill="#FFFFFF"></path>
                        <path d="M37.0010119,19.377 C39.1604743,19.377 39.9309407,21.006 39.9309407,21.006 L39.96917,21.006 C39.96917,21.006 39.9132964,20.7 39.9132964,20.278 L39.9132964,17.212 L38.3341344,17.212 L38.3341344,15.772 L41.7355573,15.772 L41.7355573,27.449 C41.7355573,27.736 41.8874941,27.87 42.1492174,27.87 L43.1078893,27.87 L43.1078893,29.308 L41.20917,29.308 C40.3651858,29.308 40.0260237,28.887 40.0260237,28.254 L40.0260237,28.12 C40.0260237,27.793 40.0828775,27.602 40.0828775,27.602 L40.043668,27.602 C40.043668,27.602 39.2741818,29.538 36.8314308,29.538 C34.2759526,29.538 32.6791462,27.467 32.6791462,24.458 C32.6791462,21.372 34.4455336,19.377 37.0010119,19.377 L37.0010119,19.377 Z M37.2254862,27.928 C38.6350672,27.928 39.96917,26.892 39.96917,24.477 C39.96917,22.694 39.0859763,21.006 37.2813597,21.006 C35.7590514,21.006 34.5386561,22.253 34.5386561,24.458 C34.5386561,26.566 35.6463241,27.928 37.2254862,27.928 L37.2254862,27.928 Z" id="Fill-5" fill="#FFFFFF"></path>
                        <path d="M48.9873518,19.377 C51.6937866,19.377 53.1033676,21.41 53.1033676,23.921 C53.1033676,24.17 53.0465138,24.63 53.0465138,24.63 L46.0936917,24.63 C46.206419,26.777 47.6914783,27.928 49.3833676,27.928 C51.0360474,27.928 52.2201739,26.835 52.2201739,26.835 L52.9720158,28.197 C52.9720158,28.196 51.54283,29.538 49.2706403,29.538 C46.2818972,29.538 44.2332016,27.334 44.2332016,24.458 C44.2332016,21.372 46.2818972,19.377 48.9873518,19.377 L48.9873518,19.377 Z M51.224253,23.442 C51.1673992,21.736 50.1528538,20.854 48.9491225,20.854 C47.5591462,20.854 46.4308933,21.812 46.16917,23.442 L51.224253,23.442 L51.224253,23.442 Z" id="Fill-6" fill="#FFFFFF"></path>
                        <path d="M54.6403794,27.87 L56.068585,27.87 L56.068585,21.468 C56.068585,21.179 55.9186087,21.046 55.6559051,21.046 L54.4717787,21.046 L54.4717787,19.608 L56.6145771,19.608 C57.440917,19.608 57.8369328,19.953 57.8369328,20.738 L57.8369328,21.352 C57.8369328,21.736 57.7977233,22.022 57.7977233,22.022 L57.8369328,22.022 C58.2672569,20.604 59.3768854,19.492 60.8423399,19.492 C61.086419,19.492 61.3128538,19.531 61.3128538,19.531 L61.3128538,21.372 C61.3128538,21.372 61.086419,21.314 60.7864664,21.314 C58.7563953,21.314 57.8928063,23.403 57.8928063,25.302 L57.8928063,27.87 L59.3023874,27.87 L59.3023874,29.308 L54.6403794,29.308 L54.6403794,27.87" id="Fill-7" fill="#FFFFFF"></path>
                        <path d="M63.0106245,17.212 L61.4138182,17.212 L61.4138182,15.772 L64.8328854,15.772 L64.8328854,20.259 C64.8328854,20.72 64.7760316,21.064 64.7760316,21.064 L64.8152411,21.064 C64.8152411,21.063 65.6592253,19.377 67.877502,19.377 C70.452585,19.377 72.0670356,21.447 72.0670356,24.458 C72.0670356,27.545 70.2437945,29.538 67.7275257,29.538 C65.5288538,29.538 64.7201581,27.775 64.7201581,27.775 L64.6829091,27.775 C64.6829091,27.775 64.7387826,28.12 64.7387826,28.541 L64.7387826,29.308 L63.0106245,29.308 L63.0106245,17.212 L63.0106245,17.212 Z M67.4814862,27.928 C68.9675257,27.928 70.2085059,26.682 70.2085059,24.477 C70.2085059,22.368 69.0998577,21.006 67.5206957,21.006 C66.1111146,21.006 64.7760316,22.022 64.7760316,24.496 C64.7760316,26.222 65.6592253,27.928 67.4814862,27.928 L67.4814862,27.928 Z" id="Fill-8" fill="#FFFFFF"></path>
                        <path d="M78.4415178,19.377 C81.1479526,19.377 82.5565534,21.41 82.5565534,23.921 C82.5565534,24.17 82.5006798,24.63 82.5006798,24.63 L75.5468775,24.63 C75.6596047,26.777 77.1456443,27.928 78.8375336,27.928 C80.4902134,27.928 81.6733597,26.835 81.6733597,26.835 L82.4261818,28.197 C82.4261818,28.196 80.996996,29.538 78.7238261,29.538 C75.7360632,29.538 73.6873676,27.334 73.6873676,24.458 C73.6873676,21.372 75.7360632,19.377 78.4415178,19.377 L78.4415178,19.377 Z M80.6774387,23.442 C80.6215652,21.736 79.6070198,20.854 78.4032885,20.854 C77.0133123,20.854 75.8840791,21.812 75.623336,23.442 L80.6774387,23.442 L80.6774387,23.442 Z" id="Fill-9" fill="#FFFFFF"></path>
                        <path d="M89.4446798,23.346 L90.0465455,23.346 L90.0465455,22.981 C90.0465455,21.447 89.180996,20.911 88.0154941,20.911 C86.5127905,20.911 85.2923953,21.851 85.2923953,21.851 L84.5581976,20.527 C84.5572174,20.527 85.9491542,19.377 88.1674308,19.377 C90.5905771,19.377 91.8697866,20.662 91.8697866,23.116 L91.8697866,27.449 C91.8697866,27.736 92.0197628,27.87 92.2824664,27.87 L93.2401581,27.87 L93.2401581,29.308 L91.3433992,29.308 C90.4974545,29.308 90.160253,28.887 90.160253,28.254 L90.160253,28.12 C90.160253,27.736 90.2337708,27.487 90.2337708,27.487 L90.1965217,27.487 C90.1965217,27.487 89.3692016,29.538 87.0587826,29.538 C85.4796206,29.538 83.9004585,28.598 83.9004585,26.604 C83.9004585,23.557 87.8674783,23.346 89.4446798,23.346 L89.4446798,23.346 Z M87.4528379,28.1 C89.0682688,28.1 90.0641897,26.413 90.0641897,24.956 L90.0641897,24.553 L89.5946561,24.553 C88.7310672,24.553 85.7423241,24.592 85.7423241,26.451 C85.7423241,27.314 86.3628142,28.1 87.4528379,28.1 L87.4528379,28.1 Z" id="Fill-10" fill="#FFFFFF"></path>
                        <path d="M94.6654229,27.87 L96.1514625,27.87 L96.1514625,21.447 C96.1514625,21.179 95.9995257,21.046 95.7378024,21.046 L94.5723004,21.046 L94.5723004,19.608 L96.7141186,19.608 C97.521834,19.608 97.9168696,19.972 97.9168696,20.68 L97.9168696,21.179 C97.9168696,21.485 97.860996,21.736 97.860996,21.736 L97.8992253,21.736 C98.3687589,20.585 99.7401107,19.377 101.281043,19.377 C102.802372,19.377 103.741439,20.087 104.062957,21.658 L104.100206,21.658 C104.626593,20.451 105.942071,19.377 107.501628,19.377 C109.605217,19.377 110.601138,20.624 110.601138,23.096 L110.601138,27.87 L112.105802,27.87 L112.105802,29.308 L108.778877,29.308 L108.778877,23.5 C108.778877,22.137 108.534798,21.064 107.107573,21.064 C105.320601,21.064 104.307036,22.923 104.307036,24.841 L104.307036,27.87 L105.791115,27.87 L105.791115,29.308 L102.484775,29.308 L102.484775,23.5 C102.484775,22.233 102.296569,21.064 100.831115,21.064 C99.026498,21.064 97.9737233,23.02 97.9737233,24.918 L97.9737233,27.87 L99.4764269,27.87 L99.4764269,29.308 L94.6654229,29.308 L94.6654229,27.87" id="Fill-11" fill="#FFFFFF"></path>
                    </g>
                </g>
            </g>
        </g>
    </g>
</svg>