
<svg width="19px" height="18px" viewBox="511 25 19 18" version="1.1" xmlns="http://www.w3.org/2000/svg" xmlns:xlink="http://www.w3.org/1999/xlink">
  <path d="M522.252197,25 C518.525635,25 515.502197,28.0234375 515.502197,31.75 C515.502197,33.0859375 515.880127,34.3164062 516.548096,35.3535156 L511.44165,40.4335938 C510.852783,41.0224609 510.852783,41.9804688 511.44165,42.5605469 C511.731689,42.8505859 512.109619,43 512.505127,43 C512.874268,43 513.269775,42.8505859 513.568604,42.5605469 L518.648682,37.4541016 C519.685791,38.1220703 520.91626,38.5 522.252197,38.5 C525.97876,38.5 529.002197,35.4765625 529.002197,31.75 C529.002197,28.0234375 525.97876,25 522.252197,25 L522.252197,25 Z M522.252197,36.25 C519.773682,36.25 517.752197,34.2285156 517.752197,31.75 C517.752197,29.2714844 519.773682,27.25 522.252197,27.25 C524.730713,27.25 526.752197,29.2714844 526.752197,31.75 C526.752197,34.2285156 524.730713,36.25 522.252197,36.25 L522.252197,36.25 Z" id="search" stroke="none" fill="#333333" fill-rule="evenodd" transform="translate(520.001099, 34.000000) scale(-1, 1) translate(-520.001099, -34.000000) "></path>
</svg>