<svg width="16px" height="16px" viewBox="2 0 16 16" version="1.1" xmlns="http://www.w3.org/2000/svg" xmlns:xlink="http://www.w3.org/1999/xlink">
  <path d="M17.90625,6.5703125 C18,6.484375 18.015625,6.3359375 17.984375,6.203125 C17.9296875,6.0703125 17.796875,6 17.6640625,6 L12.5546875,6 L10.3125,0.21875 C10.2578125,0.09375 10.1328125,0 10,0 C9.8671875,0 9.7421875,0.09375 9.6875,0.21875 L7.4453125,6 L2.3359375,6 C2.203125,6 2.0703125,6.0703125 2.015625,6.203125 C1.984375,6.3359375 2,6.484375 2.09375,6.5703125 L5.984375,10.4453125 L5,15.609375 C4.984375,15.7421875 5.0390625,15.8671875 5.1484375,15.9453125 C5.2578125,16.015625 5.40625,16.015625 5.515625,15.9453125 L10,13.0546875 L14.484375,15.9453125 C14.5390625,15.984375 14.609375,16 14.6640625,16 C14.71875,16 14.796875,15.984375 14.8515625,15.9453125 C14.9609375,15.8671875 15.015625,15.7421875 15,15.609375 L14.015625,10.4453125 L17.90625,6.5703125 Z" id="star" stroke="none" fill="#EC2979" fill-rule="evenodd"></path>
</svg>