<svg width="16px" height="16px" viewBox="2 2 16 16" version="1.1" xmlns="http://www.w3.org/2000/svg" xmlns:xlink="http://www.w3.org/1999/xlink">
  <path d="M18,13 C18,10.6640625 14.6640625,11.3359375 14.6640625,9.2578125 C14.6640625,9.2578125 16,7.7578125 16,5 C16,3.3515625 14.6484375,2 13,2 C11.3359375,2 10,3.3515625 10,5 C10,5.3359375 10.015625,5.6328125 10.0546875,5.9296875 L10.0546875,5.9453125 C10.0546875,5.9453125 11.3359375,7.0703125 11.3359375,9 C11.3359375,11.6484375 10.1484375,13.4453125 10.1484375,13.4453125 C10.1484375,13.4453125 10.4609375,13.7421875 11.2578125,14 L17.6640625,14 C17.8515625,14 18,13.8515625 18,13.6640625 L18,13 Z M12,17 C12,14.6640625 8.6640625,15.3359375 8.6640625,13.2578125 C8.6640625,13.2578125 10,11.7578125 10,9 C10,7.3515625 8.6484375,6 7,6 C5.3359375,6 4,7.3515625 4,9 C4,11.7578125 5.3359375,13.2578125 5.3359375,13.2578125 C5.3359375,15.3359375 2,14.6875 2,17 L2,17.6640625 C2,17.8515625 2.1484375,18 2.3359375,18 L11.6640625,18 C11.8515625,18 12,17.8515625 12,17.6640625 L12,17 Z" id="users" stroke="none" fill="#EC2979" fill-rule="evenodd"></path>
</svg>